<svg width="16" height="16" viewBox="0 0 16 16" fill="none" xmlns="http://www.w3.org/2000/svg">
<path fill-rule="evenodd" clip-rule="evenodd" d="M14.1664 0H1.8336C0.8224 0 0 0.8224 0 1.8336V14.1664C0 15.1776 0.8224 16 1.8336 16H14.1664C15.1776 16 16 15.1776 16 14.1664V1.8336C16 0.8224 15.1776 0 14.1664 0ZM14.8 14.1664C14.8 14.516 14.516 14.8 14.1664 14.8H1.8336C1.484 14.8 1.2 14.516 1.2 14.1664V3.5344C1.2 3.1848 1.4832 2.9024 1.832 2.9008H14.168C14.5168 2.9008 14.8 3.1848 14.8 3.5328V14.1664ZM4.02566 6.428C4.5934 6.428 5.05366 5.96775 5.05366 5.4C5.05366 4.83225 4.5934 4.372 4.02566 4.372C3.45791 4.372 2.99766 4.83225 2.99766 5.4C2.99766 5.96775 3.45791 6.428 4.02566 6.428ZM5.05366 8.9248C5.05366 9.49255 4.5934 9.9528 4.02566 9.9528C3.45791 9.9528 2.99766 9.49255 2.99766 8.9248C2.99766 8.35705 3.45791 7.8968 4.02566 7.8968C4.5934 7.8968 5.05366 8.35705 5.05366 8.9248ZM11.9745 6.428C12.5422 6.428 13.0025 5.96775 13.0025 5.4C13.0025 4.83225 12.5422 4.372 11.9745 4.372C11.4067 4.372 10.9465 4.83225 10.9465 5.4C10.9465 5.96775 11.4067 6.428 11.9745 6.428ZM13.0025 8.9248C13.0025 9.49255 12.5422 9.9528 11.9745 9.9528C11.4067 9.9528 10.9465 9.49255 10.9465 8.9248C10.9465 8.35705 11.4067 7.8968 11.9745 7.8968C12.5422 7.8968 13.0025 8.35705 13.0025 8.9248ZM7.99988 6.428C8.56762 6.428 9.02787 5.96775 9.02787 5.4C9.02787 4.83225 8.56762 4.372 7.99988 4.372C7.43213 4.372 6.97188 4.83225 6.97188 5.4C6.97188 5.96775 7.43213 6.428 7.99988 6.428ZM9.02787 8.9248C9.02787 9.49255 8.56762 9.9528 7.99988 9.9528C7.43213 9.9528 6.97188 9.49255 6.97188 8.9248C6.97188 8.35705 7.43213 7.8968 7.99988 7.8968C8.56762 7.8968 9.02787 8.35705 9.02787 8.9248ZM4.02566 13.4168C4.5934 13.4168 5.05366 12.9565 5.05366 12.3888C5.05366 11.821 4.5934 11.3608 4.02566 11.3608C3.45791 11.3608 2.99766 11.821 2.99766 12.3888C2.99766 12.9565 3.45791 13.4168 4.02566 13.4168ZM9.02787 12.3888C9.02787 12.9565 8.56762 13.4168 7.99988 13.4168C7.43213 13.4168 6.97188 12.9565 6.97188 12.3888C6.97188 11.821 7.43213 11.3608 7.99988 11.3608C8.56762 11.3608 9.02787 11.821 9.02787 12.3888Z" fill="#8A98A4"/>
</svg>
