<svg width="79" height="30" viewBox="0 0 79 30" fill="none" xmlns="http://www.w3.org/2000/svg">
<path d="M16.0687 10.29V21H18.4237V16.575H22.9087V14.745H18.4237V12.27H23.5987V10.29H16.0687ZM26.7753 17.13C26.7753 16.82 26.8053 16.515 26.8653 16.215C26.9253 15.915 27.0253 15.65 27.1653 15.42C27.3153 15.19 27.5103 15.005 27.7503 14.865C27.9903 14.715 28.2903 14.64 28.6503 14.64C29.0103 14.64 29.3103 14.715 29.5503 14.865C29.8003 15.005 29.9953 15.19 30.1353 15.42C30.2853 15.65 30.3903 15.915 30.4503 16.215C30.5103 16.515 30.5403 16.82 30.5403 17.13C30.5403 17.44 30.5103 17.745 30.4503 18.045C30.3903 18.335 30.2853 18.6 30.1353 18.84C29.9953 19.07 29.8003 19.255 29.5503 19.395C29.3103 19.535 29.0103 19.605 28.6503 19.605C28.2903 19.605 27.9903 19.535 27.7503 19.395C27.5103 19.255 27.3153 19.07 27.1653 18.84C27.0253 18.6 26.9253 18.335 26.8653 18.045C26.8053 17.745 26.7753 17.44 26.7753 17.13ZM24.6453 17.13C24.6453 17.75 24.7403 18.31 24.9303 18.81C25.1203 19.31 25.3903 19.74 25.7403 20.1C26.0903 20.45 26.5103 20.72 27.0003 20.91C27.4903 21.1 28.0403 21.195 28.6503 21.195C29.2603 21.195 29.8103 21.1 30.3003 20.91C30.8003 20.72 31.2253 20.45 31.5753 20.1C31.9253 19.74 32.1953 19.31 32.3853 18.81C32.5753 18.31 32.6703 17.75 32.6703 17.13C32.6703 16.51 32.5753 15.95 32.3853 15.45C32.1953 14.94 31.9253 14.51 31.5753 14.16C31.2253 13.8 30.8003 13.525 30.3003 13.335C29.8103 13.135 29.2603 13.035 28.6503 13.035C28.0403 13.035 27.4903 13.135 27.0003 13.335C26.5103 13.525 26.0903 13.8 25.7403 14.16C25.3903 14.51 25.1203 14.94 24.9303 15.45C24.7403 15.95 24.6453 16.51 24.6453 17.13ZM34.2652 10.29V21H36.3952V10.29H34.2652ZM38.2824 10.29V21H40.4124V10.29H38.2824ZM44.1296 17.13C44.1296 16.82 44.1596 16.515 44.2196 16.215C44.2796 15.915 44.3796 15.65 44.5196 15.42C44.6696 15.19 44.8646 15.005 45.1046 14.865C45.3446 14.715 45.6446 14.64 46.0046 14.64C46.3646 14.64 46.6646 14.715 46.9046 14.865C47.1546 15.005 47.3496 15.19 47.4896 15.42C47.6396 15.65 47.7446 15.915 47.8046 16.215C47.8646 16.515 47.8946 16.82 47.8946 17.13C47.8946 17.44 47.8646 17.745 47.8046 18.045C47.7446 18.335 47.6396 18.6 47.4896 18.84C47.3496 19.07 47.1546 19.255 46.9046 19.395C46.6646 19.535 46.3646 19.605 46.0046 19.605C45.6446 19.605 45.3446 19.535 45.1046 19.395C44.8646 19.255 44.6696 19.07 44.5196 18.84C44.3796 18.6 44.2796 18.335 44.2196 18.045C44.1596 17.745 44.1296 17.44 44.1296 17.13ZM41.9996 17.13C41.9996 17.75 42.0946 18.31 42.2846 18.81C42.4746 19.31 42.7446 19.74 43.0946 20.1C43.4446 20.45 43.8646 20.72 44.3546 20.91C44.8446 21.1 45.3946 21.195 46.0046 21.195C46.6146 21.195 47.1646 21.1 47.6546 20.91C48.1546 20.72 48.5796 20.45 48.9296 20.1C49.2796 19.74 49.5496 19.31 49.7396 18.81C49.9296 18.31 50.0246 17.75 50.0246 17.13C50.0246 16.51 49.9296 15.95 49.7396 15.45C49.5496 14.94 49.2796 14.51 48.9296 14.16C48.5796 13.8 48.1546 13.525 47.6546 13.335C47.1646 13.135 46.6146 13.035 46.0046 13.035C45.3946 13.035 44.8446 13.135 44.3546 13.335C43.8646 13.525 43.4446 13.8 43.0946 14.16C42.7446 14.51 42.4746 14.94 42.2846 15.45C42.0946 15.95 41.9996 16.51 41.9996 17.13ZM60.4245 21L62.8695 13.245H60.6795L59.2545 18.495H59.2245L57.9045 13.245H55.8345L54.5445 18.51H54.5145L53.0895 13.245H50.8395L53.2995 21H55.5045L56.8245 15.795H56.8545L58.2345 21H60.4245Z" fill="#4BA0EC"/>
<rect x="0.5" y="0.5" width="78" height="29" rx="14.5" stroke="#4BA0EC"/>
</svg>
