<svg width="12" height="11" viewBox="0 0 12 11" fill="none" xmlns="http://www.w3.org/2000/svg">
<path d="M10.7727 0H1.22727C0.549273 0 0 0.55385 0 1.2375V9.7625C0 10.4461 0.549273 11 1.22727 11H10.7727C11.4507 11 12 10.4461 12 9.7625V1.2375C12 0.55385 11.4507 0 10.7727 0ZM9 6.3272C9 6.59285 8.78618 6.80845 8.52273 6.80845C8.25927 6.80845 8.04545 6.5923 8.04545 6.32665V4.38185L3.92891 8.53215C3.83618 8.62565 3.71345 8.67295 3.59073 8.67295C3.468 8.67295 3.34691 8.62565 3.25364 8.5316C3.06709 8.3435 3.06709 8.0388 3.25364 7.85125L7.37018 3.7004H5.43927C5.17636 3.7004 4.96255 3.48425 4.96255 3.2186C4.96255 2.95295 5.17636 2.73735 5.43982 2.73735H8.52164C8.78509 2.73735 8.99891 2.95185 8.99891 3.21805V6.32555L9 6.3272Z" fill="#8A98A4"/>
</svg>
