<svg width="15" height="15" viewBox="0 0 15 15" fill="none" xmlns="http://www.w3.org/2000/svg">
<path fill-rule="evenodd" clip-rule="evenodd" d="M7.89751 0.164813L11.6475 3.91481C11.8673 4.13456 11.8673 4.49006 11.6475 4.70981C11.538 4.82081 11.394 4.87481 11.25 4.87481C11.106 4.87481 10.962 4.82006 10.8525 4.70981L8.06251 1.91981V9.56231C8.06251 9.87281 7.81051 10.1248 7.50001 10.1248C7.18951 10.1248 6.93751 9.87281 6.93751 9.56231V1.91981L4.14751 4.70981C3.92776 4.93031 3.57301 4.92881 3.35251 4.70981C3.13201 4.49081 3.13201 4.13456 3.35251 3.91481L7.10251 0.164813C7.32151 -0.0549375 7.67776 -0.0549375 7.89751 0.164813ZM1.719 14.7703H13.281C14.229 14.7703 15 13.9993 15 13.0513V8.81232C15 8.50182 14.748 8.24982 14.4375 8.24982C14.127 8.24982 13.875 8.50182 13.875 8.81232V13.0513C13.875 13.3791 13.6088 13.6453 13.281 13.6453H1.719C1.39125 13.6453 1.125 13.3791 1.125 13.0513V8.81232C1.125 8.50182 0.873 8.24982 0.5625 8.24982C0.252 8.24982 0 8.50182 0 8.81232V13.0513C0 13.9993 0.771 14.7703 1.719 14.7703Z" fill="#8A98A4"/>
</svg>
