<svg width="19" height="13" viewBox="0 0 19 13" fill="none" xmlns="http://www.w3.org/2000/svg">
<path d="M18.8253 9.24543C18.5939 9.01529 18.2175 9.01529 17.9854 9.24543L16.2263 10.9892V2.94592C16.2263 1.32156 14.8928 0.000392902 13.255 0.000392902H8.61969C8.29165 0.000392902 8.02542 0.264312 8.02542 0.589499C8.02542 0.914685 8.29165 1.1786 8.61969 1.1786H13.255C14.2375 1.1786 15.0378 1.97193 15.0378 2.94592V10.9892L13.2788 9.24543C13.0466 9.01529 12.6702 9.01529 12.4389 9.24543C12.2075 9.47557 12.2059 9.84867 12.4389 10.078L15.2121 12.8272C15.327 12.9427 15.4791 13 15.6321 13C15.785 13 15.9355 12.9434 16.052 12.8272L18.8253 10.078C19.0582 9.84867 19.0582 9.47557 18.8253 9.24543ZM10.3787 11.8218H5.74342C4.7609 11.8218 3.96061 11.0285 3.96061 10.0545V2.01121L5.71965 3.75496C5.83692 3.87043 5.98905 3.92777 6.14119 3.92777C6.29332 3.92777 6.44545 3.87043 6.56114 3.75496C6.7933 3.52482 6.7933 3.15172 6.56114 2.92236L3.78788 0.173197C3.55572 -0.0577324 3.17934 -0.0577324 2.94798 0.173197L0.174715 2.92236C-0.0582385 3.15172 -0.0582385 3.52482 0.174715 3.75496C0.407669 3.98511 0.782456 3.98511 1.01462 3.75496L2.77366 2.01121V10.0545C2.77366 11.6788 4.1072 13 5.74501 13H10.3803C10.7083 13 10.9746 12.7361 10.9746 12.4109C10.9746 12.0857 10.7076 11.8218 10.3803 11.8218H10.3787Z" fill="#8A98A4"/>
</svg>
